<?xml version="1.0" encoding="utf-8"?>
<!-- Generator: Adobe Illustrator 19.2.1, SVG Export Plug-In . SVG Version: 6.00 Build 0)  -->
<svg version="1.1" id="layer" xmlns="http://www.w3.org/2000/svg" xmlns:xlink="http://www.w3.org/1999/xlink" x="0px" y="0px"
	 viewBox="0 0 652 652" style="enable-background:new 0 0 652 652;" xml:space="preserve">
<style type="text/css">
	.st0{fill:#182957;}
</style>
<path class="st0" d="M85.2,327.3H70.7v-54H53.3c-2.3,4.6-10.7,9.9-18.1,8.7v13.8c4.9,0.5,11-1.8,12.9-4.7l0.1,36.3H35.4v15.8h49.8
	v14.4H31c-5,0-9-4-9-9v-80.6c0-5,4-9,9-9h54.2V327.3z M174,352.5v4.9h7.2l0-5.9c0-2.7-1.4-7.6-6.3-10.1l5.3-14.1h-7.9l-3.8,10.8
	l-0.4,0.1l-0.6,0v-11h-7.5v30h7.5V347C171.2,346.2,174,349.1,174,352.5 M113,348c0-6.1,4.8-20.7,20.8-20.7v30.1h-7.5v-3.4h-5.7v3.4
	H113V348z M126.4,347v-8.9c-2.8,0.1-5.7,6.5-5.7,8.9H126.4z M144,337.7c5.4,1.3,5.9,7,5.9,7v12.7l8-0.1v-30h-7.6v5.1
	c-4.9-4.1-7.6-4.9-13.6-5v30h7.4V337.7 M101.4,350.3c2.6,0,2.5-3.8,0-3.8h-4.1v3.8H101.4 M107.9,342.4c6.5,5.4,1.8,15-4.7,15H90.4
	l0.1-29.9l11,0C112.8,327.6,111.8,340.6,107.9,342.4 M101.4,338.8c2.6,0,2.5-3.8,0-3.8h-4.1v3.8H101.4 M229.9,357.5
	c-0.1-3.4,0.2-5.3,2.4-5.3c2.2,0.1,2.5,1.5,2.5,5.1l5.2,0.2c0.1-5.4-0.9-8.3-4.1-8.8c4.3-2.5,3.3-5.8,3.5-9.2h-4.9
	c0.3,3.3-0.1,5-2.2,5c-2.1,0-2.2-1.7-2.2-5h-4.5c0,3.4-0.5,6.8,3,9.3c-2.8,0.8-3.7,3.3-3.5,8.6H229.9 M197.4,344.2h4.2v13.3h4.6
	v-13.3h4.2v-4.6h-13V344.2z M212.6,339.5v17.9h11v-4.2h-6.7v-2.6h4.6v-4.5h-4.6v-2.4h6.7v-4.2H212.6z M242,351.8
	c0-3.7,2.9-12.3,12.5-12.3v18H250v-2h-3.4v2H242V351.8z M250,351.2v-5.3c-1.7,0-3.4,3.9-3.4,5.3H250z M262.3,344.1h3.3v-4.3v-0.4
	h-2.3c-3.9,0-7,1.6-7,5.6c0,2.1,1.3,5.4,4.6,5.7c3.9,0.3,3.1,3,0.9,2.8h-5.3v4l5.6,0c4-0.1,5.9-2,5.9-5.5c0-3.3-1.8-4.8-5.1-5.3
	C259.6,346.1,260.9,344.1,262.3,344.1 M109.4,258.8l-18.9,0.1l-0.1,30.4h7.3V278l7.9,0l0-7.5l-7.7,0v-3.9l11.6,0.1V258.8z
	 M111.6,289.3h7.6V259h-7.6V289.3z M130.6,266.9c3.7-0.1,4.8,6.7,0.4,7.5h-1.7v-7.6L130.6,266.9 M129.3,282c1.7-0.4,4.1,1.1,4.1,3.5
	v3.8h7.3c0-1.4,0.7-8-3-10.5c7-8.1,3.5-19.8-8.4-19.8h-7.3v30.4h7.4V282 M161.7,258.9v7.8h7v22.6h7.5v-22.6h6.9v-7.8H161.7z
	 M153.5,266.9h5.5v-7.3v-0.7h-3.9c-6.5,0-11.8,2.6-11.8,9.4c0,3.6,2.2,9.1,7.7,9.5c6.5,0.6,5.2,5,1.4,4.8h-8.9v6.7l9.5,0
	c6.7-0.1,9.8-3.4,9.8-9.1c0-5.5-3.1-8-8.5-9C149,270.3,151,266.9,153.5,266.9 M160.8,324.1h7.6v-30.4h-7.6V324.1z M137,301.6h7v22.5
	h7.5v-22.5h6.9v-7.8H137V301.6z M97.8,304.4c5.4,1.3,5.9,7,5.9,7v12.7l8-0.1v-30.1L104,294v5.2c-4.9-4.1-7.6-4.9-13.6-5v30h7.4
	V304.4 M114,314.7c0-6.1,4.8-20.7,20.8-20.7v30.2h-7.5v-3.4h-5.7v3.4H114V314.7z M127.3,313.6v-8.9c-2.8,0.1-5.7,6.5-5.7,8.9H127.3z
	 M252.5,293.8v30.4h15.1v-7.2l-7.5,0v-23.2H252.5z M212.3,304.4c5.4,1.3,5.9,7,5.9,7v12.7l8-0.1v-30.1l-7.6,0.1v5.2
	c-4.9-4.1-7.6-4.9-13.6-5v30h7.4V304.4 M228.6,314.7c0-6.1,4.9-20.7,20.8-20.7v30.2h-7.5v-3.4h-5.7v3.4h-7.7V314.7z M241.9,313.6
	v-8.9c-2.8,0.1-5.7,6.5-5.7,8.9H241.9z M186.2,300.3c4.6,0,8.3,3.7,8.3,8.3c0,4.6-3.7,8.3-8.3,8.3c-4.6,0-8.3-3.7-8.3-8.3
	C177.9,304,181.6,300.3,186.2,300.3 M201.8,308.6c0-8.6-7-15.6-15.6-15.6c-8.6,0-15.6,7-15.6,15.6c0,8.6,7,15.6,15.6,15.6
	C194.8,324.2,201.8,317.2,201.8,308.6 M297.6,373.7c0.3-0.8,0.5-1.6,0.6-2.4c0.2,0.7,0.4,1.5,0.8,2.6l1.2,3.5h-4L297.6,373.7z
	 M294.6,382.6l1.3-3.8h4.9l1.3,3.8h1.8l-4.8-12.6h-1.7l-4.5,12.6H294.6z M309.5,378c0-1.2,0.2-2.1,0.7-2.7c0.4-0.6,0.9-0.8,1.6-0.8
	c0.7,0,1.2,0.3,1.7,0.9c0.4,0.6,0.7,1.5,0.7,2.8c0,1.1-0.2,1.9-0.7,2.5c-0.4,0.6-1,0.8-1.6,0.8c-0.6,0-1.2-0.3-1.6-0.9
	C309.8,380.1,309.5,379.2,309.5,378 M315.4,382.6V370H314v4.5c-0.3-0.4-0.6-0.7-1-0.9c-0.4-0.2-0.8-0.3-1.3-0.3
	c-0.7,0-1.3,0.2-1.8,0.5c-0.5,0.3-1,0.9-1.3,1.6c-0.3,0.7-0.5,1.6-0.5,2.6c0,1.5,0.4,2.7,1.1,3.5c0.7,0.8,1.6,1.2,2.6,1.2
	c0.5,0,0.9-0.1,1.3-0.3c0.4-0.2,0.7-0.6,1-1v1.1H315.4z M317.7,373.5h1.4v9.1h-1.4V373.5z M317.7,370h1.4v1.8h-1.4V370z M325,382.6
	l3.2-9.1h-1.5l-1.9,5.6c-0.2,0.7-0.4,1.3-0.5,1.7c-0.2-0.6-0.3-1.2-0.5-1.8l-1.8-5.5h-1.5l3.2,9.1H325z M329.5,373.5h1.4v9.1h-1.4
	V373.5z M329.5,370h1.4v1.8h-1.4V370z M332.5,379.9c0.3,1.9,1.5,2.9,3.5,2.9c1.1,0,1.9-0.3,2.6-0.8c0.6-0.5,0.9-1.2,0.9-2.1
	c0-0.5-0.1-0.9-0.3-1.2c-0.2-0.3-0.5-0.6-0.8-0.8c-0.4-0.2-1.1-0.5-2.3-0.8c-0.9-0.2-1.4-0.4-1.5-0.6c-0.3-0.2-0.4-0.5-0.4-0.8
	c0-0.3,0.2-0.6,0.5-0.8c0.3-0.2,0.8-0.3,1.4-0.3c1.1,0,1.7,0.5,1.8,1.5l1.4-0.2c-0.1-0.6-0.3-1.1-0.5-1.5c-0.3-0.3-0.6-0.6-1.1-0.8
	c-0.5-0.2-1-0.3-1.7-0.3c-1,0-1.8,0.2-2.3,0.7c-0.6,0.5-0.8,1.1-0.8,1.9c0,0.4,0.1,0.8,0.3,1.2c0.2,0.4,0.5,0.6,0.9,0.8
	c0.4,0.2,1.1,0.5,2.2,0.8c0.8,0.2,1.3,0.4,1.5,0.5c0.3,0.2,0.4,0.5,0.4,0.8c0,0.4-0.2,0.8-0.5,1c-0.3,0.3-0.8,0.4-1.4,0.4
	c-0.6,0-1.1-0.2-1.5-0.5c-0.4-0.3-0.6-0.8-0.7-1.4L332.5,379.9 M341.3,373.5h1.4v9.1h-1.4V373.5z M341.3,370h1.4v1.8h-1.4V370z
	 M345.8,378c0-1.2,0.2-2,0.7-2.6c0.5-0.6,1.1-0.9,1.7-0.9c0.7,0,1.3,0.3,1.8,0.9c0.5,0.6,0.7,1.5,0.7,2.6c0,1.2-0.2,2-0.7,2.6
	c-0.5,0.6-1.1,0.9-1.7,0.9c-0.7,0-1.3-0.3-1.8-0.9C346,380.1,345.8,379.2,345.8,378 M344.3,378c0,1.6,0.4,2.8,1.1,3.6
	c0.8,0.8,1.7,1.2,2.8,1.2c1.2,0,2.1-0.4,2.9-1.2c0.8-0.8,1.1-2,1.1-3.7c0-1.5-0.4-2.7-1.1-3.5c-0.8-0.8-1.7-1.2-2.8-1.2
	c-1.1,0-2.1,0.4-2.8,1.2C344.7,375.3,344.3,376.5,344.3,378 M355.4,382.6v-5c0-1.1,0.2-1.9,0.6-2.3c0.4-0.5,1-0.7,1.6-0.7
	c0.4,0,0.7,0.1,1,0.3c0.3,0.2,0.5,0.4,0.6,0.7c0.1,0.3,0.2,0.8,0.2,1.5v5.5h1.4V377c0-0.8-0.1-1.5-0.2-1.9c-0.1-0.4-0.3-0.7-0.5-1
	c-0.2-0.3-0.5-0.5-0.9-0.6c-0.4-0.2-0.8-0.2-1.3-0.2c-0.6,0-1.1,0.1-1.5,0.4c-0.5,0.2-0.8,0.6-1.1,1.1v-1.3H354v9.1H355.4z
	 M368.5,378c0-1.2,0.2-2,0.7-2.6c0.5-0.6,1.1-0.9,1.7-0.9c0.7,0,1.3,0.3,1.8,0.9c0.5,0.6,0.7,1.5,0.7,2.6c0,1.2-0.2,2-0.7,2.6
	c-0.5,0.6-1.1,0.9-1.7,0.9c-0.7,0-1.3-0.3-1.8-0.9C368.7,380.1,368.5,379.2,368.5,378 M367,378c0,1.6,0.4,2.8,1.1,3.6
	c0.8,0.8,1.7,1.2,2.8,1.2c1.2,0,2.1-0.4,2.9-1.2c0.7-0.8,1.1-2,1.1-3.7c0-1.5-0.4-2.7-1.1-3.5c-0.8-0.8-1.7-1.2-2.8-1.2
	c-1.1,0-2.1,0.4-2.8,1.2C367.4,375.3,367,376.5,367,378 M378.5,382.6v-7.9h1.6v-1.2h-1.6v-0.8c0-0.6,0.1-0.9,0.3-1.1
	c0.2-0.2,0.5-0.3,0.9-0.3c0.3,0,0.5,0,0.8,0.1l0.2-1.3c-0.5-0.1-0.9-0.2-1.3-0.2c-0.5,0-1,0.1-1.3,0.3c-0.3,0.2-0.6,0.5-0.8,0.8
	c-0.2,0.4-0.3,0.9-0.3,1.6v1h-1.3v1.2h1.3v7.9H378.5z M386.1,370v12.6h1.5v-5.7h5.5v-1.5h-5.5v-3.9h6.3V370H386.1z M395.7,373.5h1.4
	v9.1h-1.4V373.5z M395.7,370h1.4v1.8h-1.4V370z M400.8,382.6v-4.8c0-0.7,0.1-1.3,0.3-1.9c0.1-0.3,0.3-0.6,0.5-0.8
	c0.2-0.2,0.5-0.3,0.8-0.3c0.3,0,0.7,0.1,1,0.3l0.5-1.4c-0.5-0.3-1-0.5-1.5-0.5c-0.3,0-0.6,0.1-0.9,0.3c-0.3,0.2-0.6,0.6-0.9,1.3
	v-1.4h-1.3v9.1H400.8z M404.2,379.9c0.3,1.9,1.5,2.9,3.5,2.9c1.1,0,1.9-0.3,2.6-0.8c0.6-0.5,0.9-1.2,0.9-2.1c0-0.5-0.1-0.9-0.3-1.2
	c-0.2-0.3-0.5-0.6-0.8-0.8c-0.4-0.2-1.1-0.5-2.3-0.8c-0.9-0.2-1.4-0.4-1.5-0.6c-0.3-0.2-0.4-0.5-0.4-0.8c0-0.3,0.1-0.6,0.5-0.8
	c0.3-0.2,0.8-0.3,1.4-0.3c1.1,0,1.7,0.5,1.8,1.5l1.4-0.2c-0.1-0.6-0.3-1.1-0.5-1.5c-0.2-0.3-0.6-0.6-1.1-0.8c-0.5-0.2-1-0.3-1.7-0.3
	c-1,0-1.8,0.2-2.3,0.7c-0.6,0.5-0.8,1.1-0.8,1.9c0,0.4,0.1,0.8,0.3,1.2c0.2,0.4,0.5,0.6,0.9,0.8c0.4,0.2,1.1,0.5,2.2,0.8
	c0.8,0.2,1.3,0.4,1.5,0.5c0.3,0.2,0.4,0.5,0.4,0.8c0,0.4-0.2,0.8-0.5,1c-0.3,0.3-0.8,0.4-1.4,0.4c-0.6,0-1.1-0.2-1.5-0.5
	c-0.4-0.3-0.6-0.8-0.7-1.4L404.2,379.9 M416.1,381.2c-0.3,0-0.5,0.1-0.6,0.1c-0.3,0-0.6-0.1-0.7-0.3c-0.1-0.1-0.1-0.5-0.1-0.9v-5.3
	h1.4v-1.2h-1.4v-3.2l-1.4,0.9v2.2h-1.1v1.2h1.1v5.2c0,0.9,0.1,1.5,0.2,1.8c0.1,0.3,0.3,0.5,0.6,0.7c0.3,0.2,0.7,0.3,1.2,0.3
	c0.3,0,0.7-0.1,1.1-0.1L416.1,381.2 M429.9,370v9.9l-6.2-9.9h-1.6v12.6h1.5v-9.9l6.1,9.9h1.6V370H429.9z M439.2,378.6
	c0,0.8-0.1,1.3-0.3,1.7c-0.2,0.4-0.5,0.7-0.9,0.9c-0.4,0.2-0.9,0.4-1.4,0.4c-0.5,0-1-0.1-1.3-0.4c-0.3-0.3-0.5-0.6-0.5-1
	c0-0.3,0.1-0.5,0.2-0.7c0.1-0.2,0.3-0.4,0.6-0.5c0.2-0.1,0.7-0.2,1.3-0.3c1-0.2,1.8-0.4,2.3-0.6V378.6z M439.3,381.5
	c0,0.4,0.1,0.8,0.3,1.1h1.5c-0.2-0.4-0.3-0.7-0.4-1.1c-0.1-0.4-0.1-1.3-0.1-2.7v-2.1c0-0.8-0.1-1.5-0.2-1.9c-0.1-0.4-0.5-0.8-1-1.1
	c-0.5-0.3-1.2-0.4-2.1-0.4c-1.1,0-2,0.2-2.6,0.7c-0.6,0.4-1,1.1-1.2,2.1l1.4,0.2c0.2-0.7,0.4-1.1,0.7-1.4c0.3-0.2,0.8-0.4,1.5-0.4
	c0.7,0,1.3,0.2,1.6,0.6c0.3,0.2,0.4,0.7,0.4,1.3l0,0.4c-0.5,0.2-1.4,0.4-2.6,0.6c-0.9,0.1-1.5,0.3-1.9,0.5c-0.4,0.2-0.8,0.5-1,0.9
	c-0.2,0.4-0.4,0.9-0.4,1.4c0,0.8,0.3,1.4,0.8,1.9c0.5,0.5,1.2,0.7,2.1,0.7c0.6,0,1.1-0.1,1.6-0.3
	C438.4,382.2,438.9,381.9,439.3,381.5 M446.1,381.2c-0.3,0-0.5,0.1-0.6,0.1c-0.3,0-0.6-0.1-0.7-0.3c-0.1-0.1-0.1-0.5-0.1-0.9v-5.3
	h1.4v-1.2h-1.4v-3.2l-1.4,0.9v2.2h-1.1v1.2h1.1v5.2c0,0.9,0.1,1.5,0.2,1.8c0.1,0.3,0.3,0.5,0.6,0.7c0.3,0.2,0.7,0.3,1.2,0.3
	c0.3,0,0.7-0.1,1.1-0.1L446.1,381.2 M447.4,373.5h1.4v9.1h-1.4V373.5z M447.4,370h1.4v1.8h-1.4V370z M478.3,382.6h1.4V370h-1.4
	V382.6z M452,378c0-1.2,0.2-2,0.7-2.6c0.5-0.6,1.1-0.9,1.7-0.9c0.7,0,1.3,0.3,1.8,0.9c0.5,0.6,0.7,1.5,0.7,2.6c0,1.2-0.2,2-0.7,2.6
	c-0.5,0.6-1.1,0.9-1.7,0.9c-0.7,0-1.3-0.3-1.8-0.9C452.2,380.1,452,379.2,452,378 M450.5,378c0,1.6,0.4,2.8,1.1,3.6
	c0.8,0.8,1.7,1.2,2.8,1.2c1.2,0,2.1-0.4,2.8-1.2c0.7-0.8,1.1-2,1.1-3.7c0-1.5-0.4-2.7-1.1-3.5c-0.8-0.8-1.7-1.2-2.8-1.2
	c-1.2,0-2.1,0.4-2.8,1.2C450.9,375.3,450.5,376.5,450.5,378 M461.6,382.6v-5c0-1.1,0.2-1.9,0.6-2.3c0.4-0.5,1-0.7,1.6-0.7
	c0.4,0,0.7,0.1,1,0.3c0.3,0.2,0.5,0.4,0.6,0.7c0.1,0.3,0.2,0.8,0.2,1.5v5.5h1.4V377c0-0.8-0.1-1.5-0.2-1.9c-0.1-0.4-0.3-0.7-0.5-1
	c-0.2-0.3-0.5-0.5-0.9-0.6c-0.4-0.2-0.8-0.2-1.3-0.2c-0.6,0-1.1,0.1-1.5,0.4c-0.4,0.2-0.8,0.6-1.1,1.1v-1.3h-1.3v9.1H461.6z
	 M474.6,378.6c0,0.8-0.1,1.3-0.3,1.7c-0.2,0.4-0.5,0.7-0.9,0.9c-0.4,0.2-0.9,0.4-1.4,0.4c-0.5,0-1-0.1-1.3-0.4
	c-0.3-0.3-0.5-0.6-0.5-1c0-0.3,0.1-0.5,0.2-0.7c0.1-0.2,0.3-0.4,0.6-0.5c0.2-0.1,0.7-0.2,1.3-0.3c1-0.2,1.8-0.4,2.3-0.6V378.6z
	 M474.7,381.5c0,0.4,0.1,0.8,0.3,1.1h1.5c-0.2-0.4-0.3-0.7-0.4-1.1c-0.1-0.4-0.1-1.3-0.1-2.7v-2.1c0-0.8-0.1-1.5-0.2-1.9
	c-0.1-0.4-0.5-0.8-1-1.1c-0.5-0.3-1.2-0.4-2.1-0.4c-1.1,0-2,0.2-2.6,0.7c-0.6,0.4-1,1.1-1.2,2.1l1.4,0.2c0.2-0.7,0.4-1.1,0.7-1.4
	c0.3-0.2,0.8-0.4,1.5-0.4c0.7,0,1.3,0.2,1.6,0.6c0.3,0.2,0.4,0.7,0.4,1.3l0,0.4c-0.5,0.2-1.4,0.4-2.6,0.6c-0.9,0.1-1.5,0.3-1.9,0.5
	c-0.4,0.2-0.8,0.5-1,0.9c-0.2,0.4-0.4,0.9-0.4,1.4c0,0.8,0.3,1.4,0.8,1.9c0.5,0.5,1.2,0.7,2.1,0.7c0.6,0,1.1-0.1,1.6-0.3
	C473.8,382.2,474.3,381.9,474.7,381.5 M488.2,376.8h2.7c0.8,0,1.4,0.1,1.8,0.2c0.4,0.2,0.7,0.4,0.9,0.7c0.2,0.3,0.3,0.7,0.3,1.2
	c0,0.5-0.1,0.9-0.3,1.3c-0.2,0.3-0.6,0.6-1,0.7c-0.3,0.1-0.8,0.2-1.4,0.2h-2.9V376.8z M488.2,371.5h2.4c0.9,0,1.4,0.1,1.8,0.2
	c0.3,0.1,0.6,0.3,0.8,0.6c0.2,0.3,0.3,0.7,0.3,1.1c0,0.5-0.1,0.9-0.3,1.2c-0.2,0.3-0.5,0.5-0.9,0.6c-0.3,0.1-0.8,0.1-1.4,0.1h-2.5
	V371.5z M491.1,382.6c1,0,1.8-0.1,2.4-0.4c0.6-0.3,1.1-0.7,1.4-1.2c0.3-0.6,0.5-1.2,0.5-2c0-0.8-0.2-1.4-0.6-1.9
	c-0.4-0.5-0.9-0.9-1.6-1.1c0.5-0.3,0.9-0.7,1.2-1.1c0.3-0.5,0.4-1,0.4-1.6c0-0.6-0.2-1.2-0.5-1.7c-0.3-0.5-0.8-0.9-1.3-1.1
	c-0.5-0.2-1.2-0.4-2.1-0.4h-4.4v12.6H491.1z M502.8,378.6c0,0.8-0.1,1.3-0.3,1.7c-0.2,0.4-0.5,0.7-0.9,0.9c-0.4,0.2-0.9,0.4-1.4,0.4
	c-0.5,0-1-0.1-1.3-0.4c-0.3-0.3-0.5-0.6-0.5-1c0-0.3,0.1-0.5,0.2-0.7s0.3-0.4,0.6-0.5c0.2-0.1,0.7-0.2,1.3-0.3
	c1-0.2,1.8-0.4,2.3-0.6V378.6z M502.9,381.5c0,0.4,0.1,0.8,0.3,1.1h1.5c-0.2-0.4-0.3-0.7-0.4-1.1c-0.1-0.4-0.1-1.3-0.1-2.7v-2.1
	c0-0.8-0.1-1.5-0.2-1.9c-0.1-0.4-0.5-0.8-1-1.1c-0.5-0.3-1.2-0.4-2.1-0.4c-1.1,0-2,0.2-2.6,0.7c-0.6,0.4-1,1.1-1.2,2.1l1.4,0.2
	c0.2-0.7,0.4-1.1,0.7-1.4c0.3-0.2,0.8-0.4,1.5-0.4c0.7,0,1.3,0.2,1.6,0.6c0.2,0.2,0.4,0.7,0.4,1.3l0,0.4c-0.5,0.2-1.4,0.4-2.6,0.6
	c-0.9,0.1-1.5,0.3-1.9,0.5c-0.4,0.2-0.8,0.5-1,0.9c-0.2,0.4-0.4,0.9-0.4,1.4c0,0.8,0.3,1.4,0.8,1.9c0.5,0.5,1.2,0.7,2.1,0.7
	c0.6,0,1.1-0.1,1.6-0.3C501.9,382.2,502.4,381.9,502.9,381.5 M507.9,382.6v-5c0-1.1,0.2-1.9,0.6-2.3c0.4-0.5,1-0.7,1.6-0.7
	c0.4,0,0.7,0.1,1,0.3c0.3,0.2,0.5,0.4,0.6,0.7c0.1,0.3,0.2,0.8,0.2,1.5v5.5h1.4V377c0-0.8-0.1-1.5-0.2-1.9c-0.1-0.4-0.3-0.7-0.5-1
	c-0.2-0.3-0.5-0.5-0.9-0.6c-0.4-0.2-0.8-0.2-1.3-0.2c-0.6,0-1.1,0.1-1.5,0.4c-0.4,0.2-0.8,0.6-1.1,1.1v-1.3h-1.3v9.1H507.9z
	 M515.5,370v12.6h1.4V379l1-1l2.8,4.7h1.8l-3.6-5.7l3.2-3.4h-1.9l-3.4,3.7V370H515.5z M527.3,370v1.5h3.8v11.1h1.5v-11.1h3.9V370
	H527.3z M537.2,377.2c0-0.8,0.3-1.4,0.7-1.9c0.5-0.5,1-0.7,1.6-0.7c0.7,0,1.3,0.3,1.8,0.9c0.3,0.4,0.5,1,0.6,1.8H537.2 M541.9,379.6
	c-0.4,1.3-1.2,1.9-2.2,1.9c-0.7,0-1.3-0.3-1.7-0.8c-0.5-0.5-0.7-1.3-0.8-2.3h6.3l0-0.4c0-1.5-0.4-2.7-1.1-3.5
	c-0.7-0.8-1.6-1.2-2.7-1.2c-1.1,0-2.1,0.4-2.8,1.2c-0.7,0.8-1.1,2-1.1,3.6c0,1.5,0.4,2.7,1.1,3.5c0.7,0.8,1.7,1.2,2.9,1.2
	c1,0,1.7-0.2,2.4-0.7c0.6-0.5,1.1-1.2,1.3-2.2L541.9,379.6 M546,382.6l2.2-3.6l0.5,0.8l1.7,2.8h1.8l-3.1-4.8l2.9-4.3h-1.7l-1.4,2.2
	c-0.2,0.3-0.4,0.6-0.6,1c-0.1-0.3-0.3-0.6-0.6-1l-1.3-2.1h-1.8l2.8,4.4l-3.1,4.7H546z M558.8,378.6c0,0.8-0.1,1.3-0.3,1.7
	c-0.2,0.4-0.5,0.7-0.9,0.9c-0.4,0.2-0.9,0.4-1.4,0.4c-0.5,0-1-0.1-1.3-0.4c-0.3-0.3-0.5-0.6-0.5-1c0-0.3,0.1-0.5,0.2-0.7
	c0.1-0.2,0.3-0.4,0.6-0.5c0.2-0.1,0.7-0.2,1.3-0.3c1-0.2,1.8-0.4,2.3-0.6V378.6z M558.9,381.5c0,0.4,0.1,0.8,0.3,1.1h1.5
	c-0.2-0.4-0.3-0.7-0.4-1.1c-0.1-0.4-0.1-1.3-0.1-2.7v-2.1c0-0.8-0.1-1.5-0.2-1.9c-0.1-0.4-0.4-0.8-1-1.1c-0.5-0.3-1.2-0.4-2.1-0.4
	c-1.1,0-2,0.2-2.6,0.7c-0.6,0.4-1,1.1-1.2,2.1l1.4,0.2c0.2-0.7,0.4-1.1,0.7-1.4c0.3-0.2,0.8-0.4,1.5-0.4c0.7,0,1.3,0.2,1.6,0.6
	c0.3,0.2,0.4,0.7,0.4,1.3l0,0.4c-0.5,0.2-1.4,0.4-2.6,0.6c-0.9,0.1-1.5,0.3-1.9,0.5c-0.4,0.2-0.8,0.5-1,0.9
	c-0.2,0.4-0.4,0.9-0.4,1.4c0,0.8,0.3,1.4,0.8,1.9c0.5,0.5,1.2,0.7,2.1,0.7c0.6,0,1.1-0.1,1.6-0.3
	C557.9,382.2,558.4,381.9,558.9,381.5 M561.9,379.9c0.3,1.9,1.5,2.9,3.5,2.9c1.1,0,1.9-0.3,2.6-0.8c0.6-0.5,0.9-1.2,0.9-2.1
	c0-0.5-0.1-0.9-0.3-1.2c-0.2-0.3-0.5-0.6-0.8-0.8c-0.4-0.2-1.1-0.5-2.3-0.8c-0.9-0.2-1.4-0.4-1.5-0.6c-0.3-0.2-0.4-0.5-0.4-0.8
	c0-0.3,0.1-0.6,0.4-0.8c0.3-0.2,0.8-0.3,1.4-0.3c1.1,0,1.7,0.5,1.8,1.5l1.4-0.2c-0.1-0.6-0.3-1.1-0.5-1.5c-0.3-0.3-0.6-0.6-1.1-0.8
	c-0.5-0.2-1-0.3-1.7-0.3c-1,0-1.8,0.2-2.3,0.7c-0.6,0.5-0.8,1.1-0.8,1.9c0,0.4,0.1,0.8,0.3,1.2c0.2,0.4,0.5,0.6,0.9,0.8
	c0.4,0.2,1.1,0.5,2.2,0.8c0.8,0.2,1.3,0.4,1.5,0.5c0.3,0.2,0.4,0.5,0.4,0.8c0,0.4-0.2,0.8-0.5,1c-0.3,0.3-0.8,0.4-1.4,0.4
	c-0.6,0-1.1-0.2-1.5-0.5c-0.4-0.3-0.6-0.8-0.7-1.4L561.9,379.9 M445.1,353.1v5h7.2l0-5.9c0-2.7-1.4-7.6-6.3-10.1l5.3-14.1h-7.9
	l-3.8,10.9l-0.4,0.1l-0.6,0v-11h-7.5v30.1h7.5v-10.5C442.4,346.8,445.2,349.7,445.1,353.1 M384,348.6c0-6.1,4.9-20.7,20.9-20.7v30.2
	h-7.5v-3.4h-5.7v3.4H384V348.6z M397.4,347.5v-8.9c-2.8,0.1-5.7,6.5-5.7,8.9H397.4z M415,338.3c5.4,1.3,5.9,7,5.9,7v12.7l8-0.1v-30
	h-7.7v5.1c-4.9-4.1-7.7-4.9-13.6-5.1v30.1h7.4V338.3 M372.4,350.9c2.6,0,2.5-3.8,0-3.8h-4.1v3.8H372.4 M378.9,343
	c6.5,5.4,1.8,15.1-4.8,15.1h-12.8l0.1-30l11.1,0C383.8,328.1,382.8,341.2,378.9,343 M372.4,339.3c2.6,0,2.5-3.8,0-3.8h-4.1v3.8
	H372.4 M361.4,259.4l-0.1,30.5h7.3v-11.4l7.9,0l0-7.5l-7.8,0V267l11.7,0.1v-7.8L361.4,259.4z M382.6,289.8h7.6v-30.4h-7.6V289.8z
	 M401.7,267.4c3.7-0.1,4.8,6.7,0.4,7.5h-1.7v-7.6L401.7,267.4 M400.4,282.4c1.7-0.4,4.1,1.1,4.1,3.5v3.8h7.3c0-1.4,0.7-8-3.1-10.5
	c7-8.1,3.5-19.9-8.4-19.9H393v30.4h7.4V282.4 M432.9,259.4v7.9h7v22.6h7.5v-22.6h6.9v-7.9H432.9z M424.6,267.3h5.5V260v-0.7h-3.9
	c-6.5,0-11.8,2.6-11.8,9.4c0,3.6,2.2,9.1,7.7,9.5c6.5,0.6,5.3,5,1.4,4.8h-8.9v6.7l9.5,0c6.7-0.1,9.8-3.4,9.8-9.2c0-5.5-3.1-8-8.5-9
	C420.1,270.8,422.1,267.3,424.6,267.3 M515.3,325.1h7.9v-31.3h-7.9V325.1z M382.8,304l6.1-4.3l0.2,0c-2.9-3.7-7.3-6.1-12.2-6.1
	c-8.6,0-15.4,7.1-15.4,15.8s6.9,15.8,15.4,15.8c5.1,0,9.7-2.6,12.5-6.5l-5.9-4.1v-0.3c-1.4,2.3-3.9,3.7-6.7,3.7
	c-4.5,0-8.1-3.8-8.1-8.5c0-4.6,3.6-8.4,8.1-8.4C379.1,301.2,381.3,302.2,382.8,304 M594.2,304l6-4.4l0.1,0c-2.9-3.6-7.3-6-12.2-6
	c-8.6,0-15.4,7.1-15.4,15.8s6.9,15.8,15.4,15.8c5.1,0,9.7-2.6,12.5-6.5l-5.9-4.1v-0.2c-1.4,2.3-3.9,3.7-6.7,3.7c-4.4,0-8-3.8-8-8.5
	c0-4.6,3.6-8.4,8-8.4C590.5,301.2,592.6,302.2,594.2,304 M445.8,325.1c18.1-1,21.5-15.7,21.5-23.9v-7h-8v4.9
	c-0.1,5.4-2.2,16.2-6.1,16.1v-21.2h-7.4V325.1 M469.3,294.1v31.1h19.1v-7.2h-11.6v-4.5h8v-7.9h-8v-4.2h11.6v-7.3H469.3z
	 M526.3,294.1v31.1h19.1v-7.2h-11.6v-4.5h8v-7.9h-8v-4.2h11.6v-7.3H526.3z M602.9,294.1v31.1H622v-7.2h-11.6v-4.5h8v-7.9h-8v-4.2
	H622v-7.3H602.9z M429.7,305.4c5.4,1.3,5.9,7,5.9,7v12.7l8-0.1v-30.2l-7.7,0.1v5.2c-4.9-4.1-7.7-4.9-13.6-5.1v30.1h7.4V305.4
	 M404,301.1c4.6,0,8.3,3.7,8.3,8.3c0,4.6-3.7,8.3-8.3,8.3c-4.6,0-8.3-3.7-8.3-8.3C395.7,304.8,399.4,301.1,404,301.1 M419.8,309.4
	c0-8.7-7-15.7-15.8-15.7c-8.7,0-15.7,7-15.7,15.7c0,8.7,7.1,15.7,15.7,15.7C412.7,325.1,419.8,318.1,419.8,309.4 M498.7,305.4
	c5.4,1.3,5.9,7,5.9,7v12.7l8-0.1v-30.2l-7.7,0.1v5.2c-4.9-4.1-7.7-4.9-13.6-5.1v30.1h7.4V305.4 M555.8,305.4c5.4,1.3,5.9,7,5.9,7
	v12.7l8-0.1v-30.2l-7.7,0.1v5.2c-4.9-4.1-7.7-4.9-13.6-5.1v30.1h7.4V305.4 M356.2,259.4H302c-5,0-9,4-9,9V349c0,5,4,9,9,9h54.2
	v-14.4h-49.8v-15.8h12.9l-0.1-36.3c-1.9,3-8,5.2-12.9,4.7v-13.8c7.4,1.2,15.8-4.2,18.1-8.7h17.3v54h14.5V259.4z"/>
</svg>
